<mxfile host="Electron" modified="2024-04-23T06:17:56.614Z" agent="Mozilla/5.0 (Windows NT 10.0; Win64; x64) AppleWebKit/537.36 (KHTML, like Gecko) draw.io/21.7.5 Chrome/114.0.5735.289 Electron/25.8.1 Safari/537.36" etag="OVPQU5Fs-31PZ0939ALU" version="21.7.5" type="device">
  <diagram name="第1頁" id="gTQGSilMzlrxJXr8ZYq_">
    <mxGraphModel dx="1434" dy="836" grid="1" gridSize="10" guides="1" tooltips="1" connect="1" arrows="1" fold="1" page="1" pageScale="1" pageWidth="3300" pageHeight="4681" math="0" shadow="0">
      <root>
        <mxCell id="0" />
        <mxCell id="1" parent="0" />
        <mxCell id="w_zd_kxq1jcc1wGWlnhp-1" value="邏輯示意圖" style="swimlane;whiteSpace=wrap;html=1;" vertex="1" parent="1">
          <mxGeometry x="210" y="70" width="1080" height="670" as="geometry" />
        </mxCell>
        <mxCell id="w_zd_kxq1jcc1wGWlnhp-3" value="" style="swimlane;startSize=0;" vertex="1" parent="w_zd_kxq1jcc1wGWlnhp-1">
          <mxGeometry x="80" y="80" width="420" height="510" as="geometry" />
        </mxCell>
        <mxCell id="w_zd_kxq1jcc1wGWlnhp-2" value="client" style="shape=umlActor;verticalLabelPosition=bottom;verticalAlign=top;html=1;outlineConnect=0;" vertex="1" parent="w_zd_kxq1jcc1wGWlnhp-3">
          <mxGeometry x="195" y="410" width="30" height="60" as="geometry" />
        </mxCell>
        <mxCell id="w_zd_kxq1jcc1wGWlnhp-11" style="edgeStyle=orthogonalEdgeStyle;rounded=0;orthogonalLoop=1;jettySize=auto;html=1;entryX=0.5;entryY=0;entryDx=0;entryDy=0;entryPerimeter=0;" edge="1" parent="w_zd_kxq1jcc1wGWlnhp-3" source="w_zd_kxq1jcc1wGWlnhp-4" target="w_zd_kxq1jcc1wGWlnhp-2">
          <mxGeometry relative="1" as="geometry" />
        </mxCell>
        <mxCell id="w_zd_kxq1jcc1wGWlnhp-4" value="websocket" style="rounded=0;whiteSpace=wrap;html=1;" vertex="1" parent="w_zd_kxq1jcc1wGWlnhp-3">
          <mxGeometry x="150" y="300" width="120" height="60" as="geometry" />
        </mxCell>
        <mxCell id="w_zd_kxq1jcc1wGWlnhp-10" style="edgeStyle=orthogonalEdgeStyle;rounded=0;orthogonalLoop=1;jettySize=auto;html=1;" edge="1" parent="w_zd_kxq1jcc1wGWlnhp-3" source="w_zd_kxq1jcc1wGWlnhp-5" target="w_zd_kxq1jcc1wGWlnhp-4">
          <mxGeometry relative="1" as="geometry">
            <Array as="points">
              <mxPoint x="110" y="140" />
              <mxPoint x="190" y="140" />
            </Array>
          </mxGeometry>
        </mxCell>
        <mxCell id="w_zd_kxq1jcc1wGWlnhp-5" value="ChatRoom 1" style="rounded=0;whiteSpace=wrap;html=1;" vertex="1" parent="w_zd_kxq1jcc1wGWlnhp-3">
          <mxGeometry x="50" y="50" width="120" height="60" as="geometry" />
        </mxCell>
        <mxCell id="w_zd_kxq1jcc1wGWlnhp-12" style="edgeStyle=orthogonalEdgeStyle;rounded=0;orthogonalLoop=1;jettySize=auto;html=1;" edge="1" parent="w_zd_kxq1jcc1wGWlnhp-3" source="w_zd_kxq1jcc1wGWlnhp-6" target="w_zd_kxq1jcc1wGWlnhp-4">
          <mxGeometry relative="1" as="geometry">
            <Array as="points">
              <mxPoint x="310" y="140" />
              <mxPoint x="230" y="140" />
            </Array>
          </mxGeometry>
        </mxCell>
        <mxCell id="w_zd_kxq1jcc1wGWlnhp-6" value="ChatRoom 2" style="rounded=0;whiteSpace=wrap;html=1;" vertex="1" parent="w_zd_kxq1jcc1wGWlnhp-3">
          <mxGeometry x="250" y="50" width="120" height="60" as="geometry" />
        </mxCell>
        <mxCell id="w_zd_kxq1jcc1wGWlnhp-13" style="edgeStyle=orthogonalEdgeStyle;rounded=0;orthogonalLoop=1;jettySize=auto;html=1;entryX=1;entryY=0.5;entryDx=0;entryDy=0;" edge="1" parent="w_zd_kxq1jcc1wGWlnhp-3" source="w_zd_kxq1jcc1wGWlnhp-7" target="w_zd_kxq1jcc1wGWlnhp-4">
          <mxGeometry relative="1" as="geometry" />
        </mxCell>
        <mxCell id="w_zd_kxq1jcc1wGWlnhp-7" value="ChatRoom 4" style="rounded=0;whiteSpace=wrap;html=1;" vertex="1" parent="w_zd_kxq1jcc1wGWlnhp-3">
          <mxGeometry x="250" y="160" width="120" height="60" as="geometry" />
        </mxCell>
        <mxCell id="w_zd_kxq1jcc1wGWlnhp-14" style="edgeStyle=orthogonalEdgeStyle;rounded=0;orthogonalLoop=1;jettySize=auto;html=1;entryX=0;entryY=0.5;entryDx=0;entryDy=0;" edge="1" parent="w_zd_kxq1jcc1wGWlnhp-3" source="w_zd_kxq1jcc1wGWlnhp-8" target="w_zd_kxq1jcc1wGWlnhp-4">
          <mxGeometry relative="1" as="geometry" />
        </mxCell>
        <mxCell id="w_zd_kxq1jcc1wGWlnhp-8" value="ChatRoom 3" style="rounded=0;whiteSpace=wrap;html=1;" vertex="1" parent="w_zd_kxq1jcc1wGWlnhp-3">
          <mxGeometry x="50" y="160" width="120" height="60" as="geometry" />
        </mxCell>
        <mxCell id="w_zd_kxq1jcc1wGWlnhp-15" value="推送訊息" style="text;html=1;strokeColor=none;fillColor=none;align=center;verticalAlign=middle;whiteSpace=wrap;rounded=0;" vertex="1" parent="w_zd_kxq1jcc1wGWlnhp-3">
          <mxGeometry x="135" y="380" width="60" height="30" as="geometry" />
        </mxCell>
        <mxCell id="w_zd_kxq1jcc1wGWlnhp-9" value="" style="swimlane;startSize=0;" vertex="1" parent="w_zd_kxq1jcc1wGWlnhp-1">
          <mxGeometry x="570" y="80" width="440" height="510" as="geometry" />
        </mxCell>
        <mxCell id="w_zd_kxq1jcc1wGWlnhp-16" value="client" style="shape=umlActor;verticalLabelPosition=bottom;verticalAlign=top;html=1;outlineConnect=0;" vertex="1" parent="w_zd_kxq1jcc1wGWlnhp-9">
          <mxGeometry x="210" y="400" width="30" height="60" as="geometry" />
        </mxCell>
        <mxCell id="w_zd_kxq1jcc1wGWlnhp-18" style="edgeStyle=orthogonalEdgeStyle;rounded=0;orthogonalLoop=1;jettySize=auto;html=1;entryX=0.5;entryY=0;entryDx=0;entryDy=0;entryPerimeter=0;" edge="1" parent="w_zd_kxq1jcc1wGWlnhp-9" source="w_zd_kxq1jcc1wGWlnhp-17" target="w_zd_kxq1jcc1wGWlnhp-16">
          <mxGeometry relative="1" as="geometry" />
        </mxCell>
        <mxCell id="w_zd_kxq1jcc1wGWlnhp-17" value="websocket" style="rounded=0;whiteSpace=wrap;html=1;" vertex="1" parent="w_zd_kxq1jcc1wGWlnhp-9">
          <mxGeometry x="165" y="300" width="120" height="60" as="geometry" />
        </mxCell>
        <mxCell id="w_zd_kxq1jcc1wGWlnhp-20" style="edgeStyle=orthogonalEdgeStyle;rounded=0;orthogonalLoop=1;jettySize=auto;html=1;entryX=0.5;entryY=0;entryDx=0;entryDy=0;" edge="1" parent="w_zd_kxq1jcc1wGWlnhp-9" source="w_zd_kxq1jcc1wGWlnhp-19" target="w_zd_kxq1jcc1wGWlnhp-17">
          <mxGeometry relative="1" as="geometry" />
        </mxCell>
        <mxCell id="w_zd_kxq1jcc1wGWlnhp-19" value="Current&lt;br&gt;ChatRoom" style="rounded=0;whiteSpace=wrap;html=1;" vertex="1" parent="w_zd_kxq1jcc1wGWlnhp-9">
          <mxGeometry x="165" y="70" width="120" height="60" as="geometry" />
        </mxCell>
        <mxCell id="w_zd_kxq1jcc1wGWlnhp-21" value="推送訊息" style="text;html=1;strokeColor=none;fillColor=none;align=center;verticalAlign=middle;whiteSpace=wrap;rounded=0;" vertex="1" parent="w_zd_kxq1jcc1wGWlnhp-9">
          <mxGeometry x="150" y="370" width="60" height="30" as="geometry" />
        </mxCell>
      </root>
    </mxGraphModel>
  </diagram>
</mxfile>
